<?xml version="1.0" encoding="utf-8"?>
<svg version="1.1" xmlns="http://www.w3.org/2000/svg" xmlns:xlink="http://www.w3.org/1999/xlink" x="0px" y="0px"
	 viewBox="0 0 600 600" style="enable-background:new 0 0 600 600;" xml:space="preserve">
<g id="objects">
	<g>
		<path style="fill:#1D1D1B;" d="M448.363,239.553c-0.892-11.206,8.015,0,8.907,44.872c0-11.218,0-22.423,0-33.654
			c0.89-11.218,2.673,0,4.452,0c0,11.23,0,22.436,0.893,22.436c0.889,0,2.672,0,3.561,0l-0.243-22.546
			c0.891,0,3.805,0.111,4.698,0.111c0.889,22.436,2.67,22.436,2.67,0c0.892,11.23,1.782,11.23,3.564,11.23
			c0.892,33.641,0.892,101.533,0.892,90.328c2.227,11.212,2.449,30.834,2.225,51.861c-0.157,10.513-0.319,21.377-0.474,31.717
			c-0.029,2.585-0.058,5.137-0.086,7.642c-0.012,3.897-0.024,7.723-0.036,11.454c-0.004,8.346,0.038,16.278,0.15,23.72
			c0.026,1.848,0.053,3.7,0.081,5.686c-19.245,0.249-39.007,0.505-59.159,0.765c-14.455,0.17-29.189,0.263-44.111,0.305
			c-29.845,0.083-60.443-0.039-91.061-0.167c-30.619-0.127-61.258-0.259-91.187-0.193c-14.964,0.033-29.751,0.115-44.269,0.272
			c-20.691,0.245-40.998,0.485-60.792,0.719c-0.213,0.003-0.426,0.006-0.646,0.009c-0.155-11.269-0.311-22.581-0.468-33.932
			c-0.037-2.597-0.073-5.196-0.11-7.797l-0.108-4.683c-0.069-3.125-0.138-6.254-0.207-9.389c-0.242-12.539-0.485-25.154-0.729-37.83
			c-0.435-25.351-0.772-50.941-1.034-76.631c-0.261-25.69-0.446-51.478-0.578-77.227c-0.053-12.874-0.106-25.739-0.159-38.575
			c-0.032-20.163-0.063-40.283-0.095-60.333c44.131-0.022,87.792-0.044,130.513-0.066c0,1.781-11.218,4.452,0,5.344
			c44.859,2.671,44.859,6.235,44.859,9.798c0,1.782-33.641,0-22.436,1.782c-33.641,0-35.446,0.891-1.767,2.671
			c11.218,1.783,1.767,0,12.973,2.672c11.23,2.673-11.206,5.345,0,8.015c11.23,0,2.142,0,13.359,0
			c11.196,1.784-3.621,11.337-10.52,11.355c0,0-44.953,0.35-69.96,0.485c-12.503,0.069-25.014,0.137-37.531,0.206l-9.389,0.052
			l-4.695,0.026l-1.174,0.006l-0.107,0.006l-0.195,0.013l-1.464,0.103l0.104,1.519l0.013,0.177l0.003,0.044l0.003,0.383l0.006,1.193
			l0.026,4.774l0.052,9.549c0.068,12.733,0.136,25.47,0.205,38.212c0.131,25.484,0.262,50.984,0.394,76.495
			c0.121,25.511,0.241,51.033,0.362,76.56l0.165,38.293l0.078,16.043c0.025,0.095,0.05,0.169,0.075,0.222
			c0.118-0.028,0.208-0.056,0.271-0.082l22.289-0.077c14.862-0.046,29.723-0.092,44.581-0.138
			c29.716-0.067,59.421-0.134,89.106-0.201c29.685-0.028,59.349-0.056,88.983-0.084c14.817,0.003,29.627,0.005,44.428,0.008
			c7.36,0.006,14.718,0.012,22.073,0.018l-0.258,0.027l0.023,0.174l0.013,0.076l0.014-6.251c0.022-9.515,0.044-19.025,0.066-28.529
			c0.062-19.008,0.124-37.995,0.186-56.957c0.202-37.925,0.404-69.592,0.605-107.32L448.363,239.553z"/>
		<path style="fill:#1D1D1B;" d="M495.28,145.159l-5.18,2.995l-2.591,1.497c-0.862,0.503-1.698,1.056-2.548,1.581l-10.166,6.379
			c-26.903,17.413-52.358,37.471-76.291,59.373c-11.95,10.975-23.567,22.356-34.822,34.116
			c-11.215,11.801-22.084,23.953-32.585,36.412c-10.5,12.458-20.631,25.228-30.355,38.242l-3.608,4.902l-1.803,2.451l-3.054,4.285
			l-3.214,4.518l-1.607,2.259c-0.535,0.752-1.055,1.469-1.677,2.409l-7.166,10.618c-0.601,0.865-1.188,1.803-1.775,2.745
			l-1.763,2.808l-3.527,5.615l-7.105,11.443c-4.632,7.484-9.264,14.966-13.893,22.445c-4.86-12.829-9.718-25.653-14.573-38.47
			l-1.814-4.798c-0.295-0.847-0.624-1.468-0.939-2.186l-0.952-2.093l-1.904-4.186l-0.952-2.092l-0.476-1.046l-0.239-0.52
			l-0.273-0.452l-4.366-7.232c-0.728-1.204-1.444-2.423-2.218-3.568l-1.606-2.307c-5.547-8.003-12.025-15.825-18.859-23.438
			c-13.746-15.195-29.23-29.598-45.194-42.882c-1.787-1.567-3.149-2.835-4.117-3.818c-0.956-0.979-1.591-1.736-1.729-2.153
			c-0.323-0.552-0.299-0.881,0.014-1.021c0.156-0.07,0.385-0.093,0.678-0.074c0.171,0.028,0.239-0.022,0.401-0.002
			c0.161,0.019,0.335,0.047,0.522,0.084c3.059,0.627,9.758,3.921,16.208,7.588c-4.307-2.416-2.61-4.494-6.968-6.861
			c0.831-1.038,3.853-0.925,8.647,1.019c4.778,1.953,11.358,5.724,18.994,12.096c-3.667-3.347-7.383-6.638-11.164-9.868
			c-3.21-3.9,1.735-2.043,2.895-3.382c3.82,3.257,7.547,6.6,8.143,5.936c0.592-0.663,1.779-1.993,2.372-2.657
			c-3.752-3.389-11.439-9.981-15.372-13.161c3.911,3.206,7.757,6.492,8.333,5.822c0.579-0.677,1.738-2.03,2.318-2.709
			c4.171,2.982,8.824,7.373,13.365,11.871c4.548,4.494,8.978,9.099,12.918,12.408l1.889-1.886
			c-3.334-3.965-7.966-8.457-12.769-12.731c-4.8-4.282-9.765-8.353-13.667-11.689c4.482,2.671,5.055,2.031,6.232,0.681
			c6.133,4.773,11.571,10.353,17.012,15.914c5.448,5.569,10.895,11.11,17.2,15.996c-3.553-3.858-7.174-7.634-10.856-11.319
			c5.264,2.104,11.87,8.561,18.238,16.228c1.585,1.928,3.19,3.882,4.725,5.912c0.773,1.006,1.544,2.01,2.309,3.007
			c0.751,1.017,1.496,2.026,2.232,3.022c1.493,1.966,2.885,3.971,4.27,5.819c0.697,0.918,1.36,1.841,2.011,2.73
			c0.33,0.441,0.654,0.874,0.973,1.3c0.162,0.211,0.322,0.42,0.481,0.628l0.12,0.155c0.037,0.047,0.094,0.123,0.083,0.1l0.023-0.002
			c1.861,1.69,3.104,3.197,3.905,5.006l0.149,0.335c0.02,0.107,0.06,0.003,0.096-0.061l0.11-0.193l0.441-0.75
			c0.297-0.487,0.594-0.955,0.899-1.412c0.302-0.458,0.617-0.9,0.931-1.345l1.049-1.415c2.403-3.191,4.817-6.396,7.232-9.602
			c3.454-4.477,6.901-8.961,10.425-13.354c13.981-17.675,28.427-34.518,41.538-50.357c9.797-11.952,20.302-23.777,31.521-35.181
			c1.396-1.432,2.794-2.866,4.193-4.301l4.306-4.213c2.891-2.795,5.751-5.635,8.704-8.389c2.978-2.731,5.96-5.465,8.944-8.201
			l2.245-2.046l2.296-1.994l4.605-3.978c6.085-5.366,12.474-10.404,18.773-15.511c3.187-2.511,6.448-4.93,9.666-7.386
			c1.615-1.222,3.228-2.442,4.84-3.661c1.626-1.201,3.292-2.352,4.934-3.526c3.298-2.333,6.587-4.66,9.866-6.979
			c3.357-2.219,6.703-4.431,10.037-6.634c1.67-1.098,3.336-2.194,4.999-3.287c1.681-1.068,3.394-2.086,5.084-3.127
			c3.391-2.068,6.766-4.126,10.125-6.174c0.893,1.541-2.181,6.542,2.711,4.605c9.702-4.006,14.984-5.123,18.016-4.928
			c3.046,0.222,3.906,1.849,4.737,3.404c0.788,1.474-13.366,11.321-8.08,10.367c0,0,4.203-1.597,7.023-1.667
			c5.635-0.101-1.767,7.124,3.848,7.031c1.085-0.591,2.407-1.396,3.921-2.162c1.51-0.774,3.157-1.618,4.805-2.463
			c3.294-1.69,6.587-3.379,8.782-4.505c5.146-0.622-0.089,12.568,4.269,10.339L495.28,145.159z"/>
	</g>
</g>
</svg>
